<svg id="Layer_1" height="300" viewBox="0 0 512 512" width="300" xmlns="http://www.w3.org/2000/svg" data-name="Layer 1" version="1.1" xmlns:xlink="http://www.w3.org/1999/xlink" xmlns:svgjs="http://svgjs.dev/svgjs"><g width="100%" height="100%" transform="matrix(1,0,0,1,0,0)"><path d="m0 66.724a15.991 15.991 0 0 1 16-16h89.828a16 16 0 0 1 15.254 11.145l17.425 54.8h44.382a129.515 129.515 0 0 1 257.031 0h56.08a16.033 16.033 0 0 1 15.254 20.862l-57.883 182.037a15.994 15.994 0 0 1 -15.247 11.145h-253.424a28.936 28.936 0 0 0 0 57.871h224.8a15.779 15.779 0 0 1 8.01 2.143l47.29 27.293a16.01 16.01 0 0 1 -8.031 29.863 16.2 16.2 0 0 1 -7.987-2.143l-43.582-25.22h-24.5a44.614 44.614 0 1 1 -18.74 0h-131.5a44.621 44.621 0 1 1 -18.74 0h-27.02a60.9 60.9 0 0 1 -20.72-118.17l-69.849-219.623h-78.126a16.035 16.035 0 0 1 -16-16zm221.1 410.095a12.646 12.646 0 1 0 -12.618-12.646 12.672 12.672 0 0 0 12.618 12.646zm150.242 0a12.646 12.646 0 1 0 -12.61-12.646 12.673 12.673 0 0 0 12.61 12.646zm-59.942-246.629a97.487 97.487 0 1 0 -97.5-97.522 97.6 97.6 0 0 0 97.5 97.522zm52.527-81.518a16 16 0 0 0 0-32.008h-36.521v-36.508a16 16 0 1 0 -32 0v36.508h-36.506a16 16 0 0 0 0 32.008h36.509v36.508a16 16 0 1 0 32 0v-36.508z" fill-rule="evenodd" fill="#e4e0d4" fill-opacity="1" data-original-color="#000000ff" stroke="none" stroke-opacity="1"/></g></svg>