<svg id="Layer_1" enable-background="new 0 0 512 512" viewBox="0 0 512 512" xmlns="http://www.w3.org/2000/svg" width="300" height="300" version="1.1" xmlns:xlink="http://www.w3.org/1999/xlink" xmlns:svgjs="http://svgjs.dev/svgjs"><g width="100%" height="100%" transform="matrix(1,0,0,1,0,0)"><g id="Layer_2_00000147908674080060105640000012103664668194322574_"><g id="Layer_1_copy_8"><g id="_80" fill="#00da9f"><path d="m175.3 37.9c1.4 0 2.5 1.1 2.5 2.5v32c0 1.4-1.1 2.5-2.5 2.5h-57.8c-33.5 0-60.6 27.2-60.6 60.6v241.1c0 33.5 27.2 60.6 60.6 60.6h241.1c33.5 0 60.6-27.2 60.6-60.6v-63.6c0-1.4 1.1-2.5 2.5-2.5h32c1.4 0 2.5 1.1 2.5 2.5v63.6c-.1 53.8-43.7 97.4-97.5 97.5h-241.2c-53.9-.1-97.5-43.7-97.6-97.5v-241.2c.1-53.8 43.7-97.4 97.6-97.5zm0-19.9h-57.8c-64.9 0-117.5 52.6-117.5 117.4v241.1c0 64.9 52.6 117.5 117.5 117.5h241.1c64.8 0 117.4-52.6 117.4-117.4v-63.6c0-12.4-10-22.4-22.4-22.4h-32c-12.4 0-22.4 10-22.4 22.4v63.6c0 22.5-18.2 40.7-40.7 40.7h-241c-22.5 0-40.7-18.2-40.7-40.7v-241.2c0-22.5 18.2-40.7 40.7-40.7h57.8c12.4 0 22.4-10 22.4-22.4v-32c0-12.3-10-22.3-22.4-22.3z" fill="#adc285" fill-opacity="1" data-original-color="#00da9fff" stroke="none" stroke-opacity="1"/><path d="m469.7 67.5c12.4 0 22.4 10 22.4 22.4 0 5.9-2.4 11.6-6.6 15.8l-149.1 149.2c-8.7 8.7-22.9 8.7-31.6 0l-72-71.9c-8.9-8.6-9.1-22.8-.6-31.6 8.6-8.9 22.8-9.1 31.6-.6.2.2.4.4.6.6l42 42c7.8 7.8 20.4 7.8 28.2 0l119.3-119.3c4.2-4.2 9.9-6.6 15.8-6.6m0-19.9c-11.2 0-22 4.4-29.9 12.4l-119.3 119.2-42-42c-16.3-16.7-43.1-17.1-59.8-.7s-17.1 43.1-.7 59.8l.7.7 71.9 71.9c16.5 16.5 43.3 16.5 59.8 0l149.2-149.1c16.5-16.5 16.5-43.3 0-59.8-7.9-7.9-18.7-12.4-29.9-12.4z" fill="#adc285" fill-opacity="1" data-original-color="#00da9fff" stroke="none" stroke-opacity="1"/></g></g></g></g></svg>