<svg id="Layer_2" viewBox="0 0 64 64" xmlns="http://www.w3.org/2000/svg" data-name="Layer 2" width="300" height="300" version="1.1" xmlns:xlink="http://www.w3.org/1999/xlink" xmlns:svgjs="http://svgjs.dev/svgjs"><g width="100%" height="100%" transform="matrix(1,0,0,1,0,0)"><path d="m53.43 18.95h-33.35c-.24 0-.45-.16-.5-.4l-1.56-6.77c-.18-.78-.86-1.32-1.66-1.32h-9.32c-.94 0-1.71.77-1.71 1.71s.76 1.71 1.71 1.71h7.55c.24 0 .45.16.5.4l1.56 6.74s.01.04.02.06l4.72 20.49c.55 2.38 2.64 4.05 5.1 4.05h23.22c.16 0 .3.07.4.19s.13.28.1.43l-.47 2.04c-.7 3-3.34 5.1-6.42 5.1h-24.34c-.94 0-1.71.77-1.71 1.71s.76 1.71 1.71 1.71h24.34c4.68 0 8.68-3.18 9.74-7.74l1.1-4.75s0-.03 0-.04l4.36-18.89c.36-1.57 0-3.18-1-4.43s-2.49-1.97-4.1-1.97zm1.77 5.64-1.28 5.57s0 .01 0 .02l-.42 1.81-2.26 9.81c-.05.23-.26.4-.5.4h-24.24c-.86 0-1.59-.58-1.78-1.41l-1.42-6.16s0 0 0-.01l-.48-2.08-2.2-9.54c-.04-.15 0-.31.1-.43s.25-.19.4-.19h32.32c.82 0 1.28.48 1.44.69.35.46.47 1 .34 1.54z" fill="#ffffff" fill-opacity="1" data-original-color="#000000ff" stroke="none" stroke-opacity="1"/><path d="m45.96 30.41c-.1-.1-.15-.24-.14-.38l.41-6.64h-3.42l-.4 6.7c-.02.27-.24.48-.51.48h-7.61c-.27 0-.5-.21-.51-.48l-.4-6.7h-3.42l.41 6.64c0 .14-.04.28-.14.38s-.23.16-.37.16h-6.44l.78 3.41h5.92c.27 0 .5.21.51.48l.4 6.7h3.42l-.41-6.64c0-.14.04-.28.14-.38s.23-.16.37-.16h7.07c.14 0 .28.06.37.16.1.1.15.24.14.38l-.41 6.64h3.42l.4-6.7c.02-.27.24-.48.51-.48h5.91l.79-3.41h-6.44c-.14 0-.28-.06-.37-.16z" fill="#ffffff" fill-opacity="1" data-original-color="#000000ff" stroke="none" stroke-opacity="1"/><path d="m26.22 9.05h21.37c.28 0 .51.23.51.51v3l7.68-5.78-7.68-5.78v3c0 .28-.23.51-.51.51h-21.37v4.53z" fill="#ffffff" fill-opacity="1" data-original-color="#000000ff" stroke="none" stroke-opacity="1"/><circle cx="38.09" cy="60.4" r="2.6" fill="#ffffff" fill-opacity="1" data-original-color="#000000ff" stroke="none" stroke-opacity="1"/><circle cx="26.26" cy="60.4" r="2.6" fill="#ffffff" fill-opacity="1" data-original-color="#000000ff" stroke="none" stroke-opacity="1"/></g></svg>