<svg height="300" viewBox="0 0 24 24" width="300" xmlns="http://www.w3.org/2000/svg" version="1.1" xmlns:xlink="http://www.w3.org/1999/xlink" xmlns:svgjs="http://svgjs.dev/svgjs"><g width="100%" height="100%" transform="matrix(1,0,0,1,0,0)"><g id="Layer_2" data-name="Layer 2"><rect fill="#ffffff" height="2" rx="1" transform="matrix(.707 -.707 .707 .707 -4.97 12)" width="12" x="6" y="11" fill-opacity="1" data-original-color="#6ca4ffff" stroke="none" stroke-opacity="1"/><rect fill="#ffffff" height="12" rx="1" transform="matrix(.707 -.707 .707 .707 -4.97 12)" width="2" x="11" y="6" fill-opacity="1" data-original-color="#6ca4ffff" stroke="none" stroke-opacity="1"/><path d="m19 23h-14a4 4 0 0 1 -4-4v-14a4 4 0 0 1 4-4h14a4 4 0 0 1 4 4v14a4 4 0 0 1 -4 4zm-14-20a2 2 0 0 0 -2 2v14a2 2 0 0 0 2 2h14a2 2 0 0 0 2-2v-14a2 2 0 0 0 -2-2z" fill="#ffffff" fill-opacity="1" data-original-color="#0554f1ff" stroke="none" stroke-opacity="1"/></g></g></svg>