<svg height="300" viewBox="0 0 512 512" width="300" xmlns="http://www.w3.org/2000/svg" version="1.1" xmlns:xlink="http://www.w3.org/1999/xlink" xmlns:svgjs="http://svgjs.dev/svgjs"><g width="100%" height="100%" transform="matrix(1,0,0,1,0,0)"><path d="m482.765625 46.121094h-193.820313c-16.121093 0-29.191406 13.066406-29.191406 29.191406v109.632812c0 16.121094 13.070313 29.191407 29.191406 29.191407h68.941407l-11.140625 44.976562c-1.453125 5.859375 5.292968 10.269531 10.082031 6.59375l67.136719-51.570312h58.800781c16.121094 0 29.191406-13.070313 29.191406-29.191407v-109.632812c0-16.125-13.070312-29.191406-29.191406-29.191406zm0 0" fill="#5a6344" fill-opacity="1" data-original-color="#88dbfdff" stroke="none" stroke-opacity="1"/><path d="m355.367188 224.320312-8.621094 34.789063c-1.449219 5.863281 5.292968 10.273437 10.082031 6.597656l67.136719-51.570312h-55.335938zm0 0" fill="#5a6344" fill-opacity="1" data-original-color="#5abfe9ff" stroke="none" stroke-opacity="1"/><path d="m482.765625 46.121094h-55.335937c16.121093 0 29.191406 13.066406 29.191406 29.191406v109.632812c0 16.121094-13.070313 29.191407-29.191406 29.191407h55.335937c16.121094 0 29.191406-13.070313 29.191406-29.191407v-109.632812c0-16.125-13.070312-29.191406-29.191406-29.191406zm0 0" fill="#5a6344" fill-opacity="1" data-original-color="#5abfe9ff" stroke="none" stroke-opacity="1"/><path d="m322.722656 193.949219-6.796875-93.933594c-1.003906-49.207031-41.179687-100.015625-90.394531-100.015625h-54.566406c-49.214844 0-89.390625 50.808594-90.398438 100.015625l-6.792968 93.933594c-3.445313 47.628906 34.269531 88.167969 82.023437 88.167969h84.902344c47.753906 0 85.46875-40.539063 82.023437-88.167969zm0 0" fill="#5a6344" fill-opacity="1" data-original-color="#fed066ff" stroke="none" stroke-opacity="1"/><path d="m322.722656 193.949219-6.796875-93.933594c-1.003906-49.207031-41.179687-100.015625-90.394531-100.015625h-54.566406c-.128906 0-.257813.0078125-.386719.0078125 49.039063.2656255 89.007813 50.9296875 90.011719 100.0078125l6.792968 93.933594c3.445313 47.628906-34.265624 88.167969-82.019531 88.167969h55.335938c47.753906 0 85.46875-40.539063 82.023437-88.167969zm0 0" fill="#5a6344" fill-opacity="1" data-original-color="#f5b556ff" stroke="none" stroke-opacity="1"/><path d="m118.023438 181.738281h-25.585938c-7.988281 0-14.464844-6.476562-14.464844-14.464843v-27.632813c0-7.988281 6.476563-14.460937 14.464844-14.460937h25.585938zm0 0" fill="#9cab77" fill-opacity="1" data-original-color="#e5483cff" stroke="none" stroke-opacity="1"/><path d="m278.472656 181.738281h25.585938c7.988281 0 14.464844-6.476562 14.464844-14.464843v-27.632813c0-7.988281-6.476563-14.460937-14.464844-14.460937h-25.585938zm0 0" fill="#9cab77" fill-opacity="1" data-original-color="#e5483cff" stroke="none" stroke-opacity="1"/><path d="m394.734375 384.195312c-1.453125-24.769531-17.179687-44.957031-40.585937-55.917968-28.648438-13.410156-100.484376-33.707032-100.484376-33.707032-7.539062-1.398437-13.007812-7.976562-13.007812-15.644531v-44.601562h-84.816406v44.601562c0 7.667969-5.46875 14.242188-13.007813 15.644531 0 0-71.835937 20.296876-100.484375 33.707032-23.40625 10.960937-39.132812 31.148437-40.585937 55.917968l-1.761719 106.324219c-.140625 11.820313 9.402344 21.480469 21.226562 21.480469h354.042969c11.824219 0 21.367188-9.660156 21.226563-21.480469zm0 0" fill="#efd5af" fill-opacity="1" data-original-color="#ffe8c2ff" stroke="none" stroke-opacity="1"/><path d="m394.734375 384.195312c-1.453125-24.769531-17.179687-44.957031-40.585937-55.917968-28.648438-13.410156-100.484376-33.707032-100.484376-33.707032-7.539062-1.398437-13.007812-7.976562-13.007812-15.644531v-44.601562h-55.335938v73.433593c0 7.667969 5.46875 14.246094 13.007813 15.644532 0 0 71.835937 20.296875 100.484375 33.710937 23.40625 10.957031 39.132812 31.144531 40.585938 55.914063l1.636718 98.972656h34.234375c11.824219 0 21.367188-9.660156 21.226563-21.480469zm0 0" fill="#efd5af" fill-opacity="1" data-original-color="#efd5afff" stroke="none" stroke-opacity="1"/><path d="m126.59375 97.578125c-8.398438-3.136719-17.347656 3.050781-17.351562 12.015625-.015626 19.761719-.023438 57.230469-.023438 57.230469.503906 25.117187 14.757812 54.058593 29.820312 68.992187 13.863282 13.742188 32.664063 30.585938 59.207032 30.902344 26.546875-.316406 45.347656-17.160156 59.207031-30.902344 15.066406-14.933594 29.320313-43.875 29.820313-68.992187l-.03125-39.308594c-.007813-5.714844-5.714844-9.582031-11.074219-7.597656-40.25 14.90625-115.640625-9.660157-149.574219-22.339844zm0 0" fill="#efd5af" fill-opacity="1" data-original-color="#ffe8c2ff" stroke="none" stroke-opacity="1"/><path d="m354.148438 328.28125c-16.671876-7.804688-47.960938-17.941406-71.21875-25.050781-53.652344 21.199219-113.304688 21.5-167.167969.839843l-2.195313-.839843c-23.253906 7.109375-54.546875 17.246093-71.21875 25.050781-23.40625 10.957031-39.132812 31.144531-40.585937 55.914062l-1.761719 106.324219c-.140625 11.820313 9.402344 21.480469 21.226562 21.480469h354.042969c11.824219 0 21.367188-9.660156 21.226563-21.480469l-1.761719-106.324219c-1.453125-24.769531-17.179687-44.957031-40.585937-55.914062zm0 0" fill="#9cab77" fill-opacity="1" data-original-color="#e5483cff" stroke="none" stroke-opacity="1"/><path d="m328.332031 485.355469h-264.039062c-8.03125 0-14.699219-6.207031-15.269531-14.21875l-10.800782-151.515625c-.632812-8.859375 6.386719-16.394532 15.269532-16.394532h285.636718c8.882813 0 15.902344 7.535157 15.269532 16.394532l-10.800782 151.515625c-.570312 8.011719-7.234375 14.21875-15.265625 14.21875zm0 0" fill="#f2f2f2" fill-opacity="1" data-original-color="#f2f2f2ff" stroke="none" stroke-opacity="1"/><path d="m339.128906 303.230469h-54.566406c8.878906 0 15.898438 7.535156 15.265625 16.394531l-11.8125 165.730469h40.316406c8.03125 0 14.695313-6.207031 15.265625-14.21875l10.800782-151.515625c.632812-8.855469-6.386719-16.390625-15.269532-16.390625zm0 0" fill="#cdd6df" fill-opacity="1" data-original-color="#cdd6dfff" stroke="none" stroke-opacity="1"/><path d="m347.265625 512h-298.035156c-7.359375 0-13.320313-5.964844-13.320313-13.320312 0-7.359376 5.960938-13.320313 13.320313-13.320313h298.035156c7.359375 0 13.320313 5.960937 13.320313 13.320313 0 7.355468-5.960938 13.320312-13.320313 13.320312zm0 0" fill="#cdd6df" fill-opacity="1" data-original-color="#cdd6dfff" stroke="none" stroke-opacity="1"/><path d="m219.566406 408.109375c0 11.773437-9.542968 21.320313-21.320312 21.320313-11.773438 0-21.320313-9.546876-21.320313-21.320313 0-11.777344 9.546875-21.320313 21.320313-21.320313 11.777344 0 21.320312 9.542969 21.320312 21.320313zm0 0" fill="#ffffff" fill-opacity="1" data-original-color="#ffffffff" stroke="none" stroke-opacity="1"/><path d="m469.691406 104.480469h-117.398437c-4.269531 0-7.726563-3.460938-7.726563-7.726563 0-4.269531 3.460938-7.726562 7.726563-7.726562h117.398437c4.269532 0 7.726563 3.457031 7.726563 7.726562 0 4.265625-3.457031 7.726563-7.726563 7.726563zm0 0" fill="#f2f2f2" fill-opacity="1" data-original-color="#f2f2f2ff" stroke="none" stroke-opacity="1"/><path d="m469.691406 149.769531h-117.398437c-4.269531 0-7.726563-3.460937-7.726563-7.726562 0-4.269531 3.460938-7.726563 7.726563-7.726563h117.398437c4.269532 0 7.726563 3.457032 7.726563 7.726563 0 4.265625-3.457031 7.726562-7.726563 7.726562zm0 0" fill="#f2f2f2" fill-opacity="1" data-original-color="#f2f2f2ff" stroke="none" stroke-opacity="1"/><path d="m303.390625 181.667969h-11.691406v27.335937l-49.117188 5.691406c-4.179687.484376-7.175781 4.265626-6.6875 8.445313.445313 3.878906 3.742188 6.742187 7.558594 6.742187.292969 0 .585937-.019531.886719-.054687l55.855468-6.46875c3.84375-.445313 6.742188-3.699219 6.742188-7.570313v-34.566406c-1.132812.289063-2.320312.445313-3.546875.445313zm0 0" fill="#aaba80" fill-opacity="1" data-original-color="#426175ff" stroke="none" stroke-opacity="1"/><path d="m216.007812 238.734375c-6.101562 0-11.371093-4.578125-12.089843-10.789063-.777344-6.6875 4.019531-12.734374 10.703125-13.511718l27.15625-3.144532c6.683594-.78125 12.734375 4.015626 13.507812 10.703126.777344 6.6875-4.015625 12.738281-10.703125 13.511718l-27.15625 3.144532c-.472656.058593-.949219.085937-1.417969.085937zm0 0" fill="#9cab77" fill-opacity="1" data-original-color="#e5483cff" stroke="none" stroke-opacity="1"/></g></svg>