<svg id="Layer_1" enable-background="new 0 0 512 512" height="512" viewBox="0 0 512 512" width="512" xmlns="http://www.w3.org/2000/svg"><path clip-rule="evenodd" d="m302.3 138.6h-92.7v-11.3c0-25.5 20.8-46.3 46.3-46.3s46.3 20.8 46.3 46.3v11.3zm-155 25h217.3v247.6c0 10.8-11.7 19.8-25.5 19.8h-166.3c-13.8 0-25.5-9.1-25.5-19.8zm153.2 222.2c0 7 5.6 12.5 12.5 12.5s12.5-5.6 12.5-12.5v-173.5c0-6.9-5.6-12.5-12.5-12.5s-12.5 5.6-12.5 12.5zm-57 0c0 7 5.6 12.5 12.5 12.5s12.5-5.6 12.5-12.5v-173.5c0-6.9-5.6-12.5-12.5-12.5s-12.5 5.6-12.5 12.5zm-57.1 0c0 7 5.6 12.5 12.5 12.5s12.5-5.6 12.5-12.5v-173.5c0-6.9-5.6-12.5-12.5-12.5s-12.5 5.6-12.5 12.5zm325.6-287.3v315.1c0 54.1-44.4 98.5-98.5 98.5h-315c-54.2-.1-98.5-44.5-98.5-98.6v-315c0-54.2 44.3-98.5 98.5-98.5h315.1c54 0 98.4 44.3 98.4 98.5zm-95.9 52.6c0-6.9-5.6-12.5-12.6-12.5h-76.3v-11.3c.1-39.3-31.9-71.3-71.2-71.3s-71.3 32-71.3 71.3v11.3h-76.3c-6.9 0-12.5 5.6-12.5 12.5s5.6 12.5 12.5 12.5h13.9v247.6c0 24.7 22.7 44.8 50.5 44.8h166.3c27.9 0 50.5-20.1 50.5-44.8v-247.6h13.9c7 0 12.6-5.6 12.6-12.5z" fill="#ea3042" fill-rule="evenodd"/></svg>