<svg clip-rule="evenodd" fill-rule="evenodd" stroke-linejoin="round" stroke-miterlimit="2" viewBox="0 0 510 510" xmlns="http://www.w3.org/2000/svg" width="300" height="300" version="1.1" xmlns:xlink="http://www.w3.org/1999/xlink" xmlns:svgjs="http://svgjs.dev/svgjs"><g width="100%" height="100%" transform="matrix(1,0,0,1,0,0)"><path d="m254.049 17.927c.134-.412.518-.691.951-.691s.817.279.951.691c2.85 8.772 11.126 34.242 11.126 34.242h36.004c.433 0 .817.279.951.691s-.013.863-.363 1.118c-7.462 5.421-29.128 21.163-29.128 21.163s8.276 25.47 11.126 34.242c.134.412-.013.863-.363 1.118-.351.254-.826.254-1.176 0-7.462-5.422-29.128-21.163-29.128-21.163s-21.666 15.741-29.128 21.163c-.35.254-.825.254-1.176 0-.35-.255-.497-.706-.363-1.118 2.85-8.772 11.126-34.242 11.126-34.242s-21.666-15.742-29.128-21.163c-.35-.255-.497-.706-.363-1.118s.518-.691.951-.691h36.004s8.276-25.47 11.126-34.242zm141.761 39.784c.134-.412.518-.691.952-.691.433 0 .817.279.951.691 2.85 8.772 11.125 34.242 11.125 34.242h36.005c.433 0 .817.279.951.691s-.013.864-.364 1.118c-7.462 5.422-29.128 21.163-29.128 21.163s8.276 25.47 11.126 34.242c.134.412-.012.863-.363 1.118-.35.255-.825.255-1.175 0-7.462-5.422-29.128-21.163-29.128-21.163s-21.666 15.741-29.128 21.163c-.351.255-.826.255-1.176 0-.351-.255-.497-.706-.363-1.118 2.85-8.772 11.126-34.242 11.126-34.242s-21.666-15.741-29.128-21.163c-.351-.254-.498-.706-.364-1.118s.518-.691.951-.691h36.005s8.275-25.47 11.125-34.242zm-283.523 0c.134-.412.518-.691.951-.691.434 0 .818.279.952.691 2.85 8.772 11.125 34.242 11.125 34.242h36.005c.433 0 .817.279.951.691s-.013.864-.364 1.118c-7.462 5.422-29.128 21.163-29.128 21.163s8.276 25.47 11.126 34.242c.134.412-.012.863-.363 1.118-.35.255-.825.255-1.176 0-7.462-5.422-29.128-21.163-29.128-21.163s-21.666 15.741-29.128 21.163c-.35.255-.825.255-1.175 0-.351-.255-.497-.706-.363-1.118 2.85-8.772 11.126-34.242 11.126-34.242s-21.666-15.741-29.128-21.163c-.351-.254-.498-.706-.364-1.118s.518-.691.951-.691h36.005s8.275-25.47 11.125-34.242zm243.886 330.435 39.199 67.914-57.453-11.61-18.667 55.55-43.799-75.846c30.589-4.014 58.387-16.907 80.72-36.008zm-202.356.007c22.331 19.095 50.126 31.985 80.714 36l-43.783 75.847-18.688-55.55-57.453 11.61zm101.183-260.212c78.279 0 141.762 63.483 141.762 141.762 0 78.3-63.483 141.783-141.762 141.783-78.3 0-141.783-63.483-141.783-141.783 0-78.279 63.483-141.762 141.783-141.762zm0 250.762c60.02 0 109-48.955 109-109 0-60.02-48.98-109-109-109-60.045 0-109 48.98-109 109 0 60.045 48.955 109 109 109zm0-14c-52.333 0-95-42.667-95-95 0-52.311 42.667-95 95-95 52.311 0 95 42.689 95 95 0 52.333-42.689 95-95 95zm-17.209-112.141c.68 1.978 1.054 4.097 1.065 6.3v.018l.199 58.858c.006 1.258-.092 2.477-.295 3.655 3.236 1.287 7.535 2.849 9.335 2.849l52.564-.133c5.063-.11 9.469-3.911 9.469-9.52s-4.955-8.364-7.748-8.749c7.976.03 13.216-2.903 13.144-10.101-.072-7.197-6.988-9.192-9.989-9.469 8.094.471 14.651-2.445 14.427-9.38s-8.217-8.434-13.036-9.469c7.192.606 14.727-2.155 14.727-9.373 0-4.175-2.225-8.826-8.782-9.402l-27.661.044c-8.546-.059-9.388.118-10.645-1.013-1.264-1.138-1.766-2.749-1.375-4.398l6.749-28.621c1.634-6.742-2.535-13.594-9.277-15.227-6.741-1.641-13.593 2.535-15.227 9.276l-6.372 26.234c-.875 3.6-7.208 10.727-11.272 17.621zm-18.42 70.963c1.567 0 2.92-.569 4.029-1.678 1.109-1.116 1.663-2.476 1.656-4.043l-.2-58.876c-.015-3.142-2.58-5.699-5.721-5.685l-14.474.03c-1.574.007-2.919.569-4.028 1.685-1.109 1.117-1.663 2.469-1.663 4.044.066 19.625.14 39.251.207 58.876.007 3.142 2.579 5.692 5.714 5.684z" fill="#5a6344" fill-opacity="1" data-original-color="#000000ff" stroke="none" stroke-opacity="1"/></g></svg>