<svg xmlns="http://www.w3.org/2000/svg" id="Layer_1" data-name="Layer 1" viewBox="0 0 64 64" width="300" height="300" version="1.1" xmlns:xlink="http://www.w3.org/1999/xlink" xmlns:svgjs="http://svgjs.dev/svgjs"><g width="100%" height="100%" transform="matrix(1,0,0,1,0,0)"><path d="M61.65,35.24l-7-6A1,1,0,0,0,54,29H47l1-7.88a1,1,0,0,0-.24-.78A1,1,0,0,0,47,20H44A17,17,0,0,0,12.6,12H4v2h7.53a17.26,17.26,0,0,0-.78,2H2v2h8.28a16.31,16.31,0,0,0-.23,2H7a1,1,0,0,0-1,.88L5.63,24H2v2H5.39l-.25,2H4v2h.9L2,53.88a1,1,0,0,0,.24.78A1,1,0,0,0,3,55H6.09a6,6,0,0,0,11.82,0H34V53H17.91A6,6,0,0,0,6.09,53h-2L6.92,30H12.6A17,17,0,0,0,44,22h1.92L42.11,53H40v2h6.09a6,6,0,0,0,11.82,0H61a1,1,0,0,0,1-1V36A1,1,0,0,0,61.65,35.24ZM11,53h2v2H11Zm2.74-39h2.32A14.12,14.12,0,0,0,15,16H12.88A14.18,14.18,0,0,1,13.74,14Zm2.32,14H13.74a14.18,14.18,0,0,1-.86-2H15A14.12,14.12,0,0,0,16.06,28Zm-1.7-10a12.68,12.68,0,0,0,0,6H12.3a15.15,15.15,0,0,1,0-6ZM7.89,22h2.16a16.31,16.31,0,0,0,.23,2H7.64Zm-.73,6,.24-2h3.35a17.26,17.26,0,0,0,.78,2ZM27,36a15,15,0,0,1-12-6h2.61a13,13,0,1,0,0-18H15A15,15,0,1,1,27,36Zm8-16v2H27a1,1,0,0,1-1-1V13h2v7ZM53,55H51V53h2Zm4.91-2a6,6,0,0,0-11.82,0h-2L46,37.56V45a1,1,0,0,0,1,1H57a1,1,0,0,0,1-1V38a1,1,0,0,0-.37-.78l-5-4A1,1,0,0,0,52,33H47a.91.91,0,0,0-.46.13L46.8,31h6.83L60,36.46V48H58v2h2v3Z" fill="#5a6344" fill-opacity="1" data-original-color="#000000ff" stroke="none" stroke-opacity="1"/><rect x="36" y="53" width="2" height="2" fill="#5a6344" fill-opacity="1" data-original-color="#000000ff" stroke="none" stroke-opacity="1"/></g></svg>