<svg id="Capa_1" enable-background="new 0 0 512 512" height="300" viewBox="0 0 512 512" width="300" xmlns="http://www.w3.org/2000/svg" version="1.1" xmlns:xlink="http://www.w3.org/1999/xlink" xmlns:svgjs="http://svgjs.dev/svgjs"><g width="100%" height="100%" transform="matrix(1,0,0,1,0,0)"><g><path d="m314.083 176.71c-33.576 17.335-77.052 40.689-86.368 50.006-15.621 15.621-15.621 40.948 0 56.568 15.621 15.621 40.948 15.621 56.568 0 9.316-9.316 32.671-52.792 50.005-86.368 6.704-12.982-7.222-26.908-20.205-20.206z" fill="#5a6344" fill-opacity="1" data-original-color="#000000ff" stroke="none" stroke-opacity="1"/><path d="m16 269.551h140c8.284 0 15-6.716 15-15 0-46.869 38.131-85 85-85 2.308 0 4.603.093 6.88.276 10.354-5.627 22.694-12.162 37.44-19.775 6.442-3.325 13.604-5.083 20.711-5.083 15.538 0 30.271 8.34 38.448 21.765 8.187 13.438 8.735 29.866 1.469 43.943-7.785 15.08-14.442 27.641-20.154 38.137.127 1.902.206 3.813.206 5.736 0 8.284 6.716 15 15 15h140c8.284 0 15-6.716 15-15 0-17.474-1.758-34.676-5.167-51.414l-62.426 16.727c-8.002 2.144-16.227-2.604-18.371-10.606s2.604-16.227 10.606-18.371l62.482-16.742c-8.497-25.671-21.093-49.856-37.447-71.757l-49.487 41.525c-6.346 5.325-15.807 4.497-21.132-1.849-5.325-6.346-4.497-15.807 1.849-21.132l49.449-41.493c-1.656-1.75-3.333-3.487-5.044-5.198-17.739-17.739-37.636-32.531-59.091-44.155l-27.328 58.607c-3.501 7.508-12.425 10.757-19.933 7.256-7.508-3.501-10.757-12.426-7.256-19.934l27.334-58.62c-25.001-9.906-51.609-15.813-79.038-17.394v64.551c0 8.284-6.716 15-15 15-8.284 0-15-6.716-15-15v-64.551c-27.429 1.581-54.037 7.488-79.037 17.395l27.334 58.62c3.501 7.508.252 16.433-7.256 19.934-7.508 3.501-16.432.252-19.933-7.256l-27.328-58.607c-21.456 11.623-41.353 26.415-59.092 44.154-1.711 1.711-3.387 3.448-5.044 5.198l49.449 41.493c6.346 5.325 7.174 14.786 1.849 21.132-5.325 6.346-14.786 7.174-21.132 1.849l-49.487-41.525c-16.354 21.902-28.95 46.087-37.447 71.757l62.482 16.742c8.002 2.144 12.751 10.369 10.606 18.371s-10.369 12.75-18.371 10.606l-62.426-16.726c-3.409 16.738-5.167 33.941-5.167 51.414 0 8.284 6.716 15 15 15z" fill="#5a6344" fill-opacity="1" data-original-color="#000000ff" stroke="none" stroke-opacity="1"/><path d="m401 292c-60.654 0-110 49.346-110 110s49.346 110 110 110 110-49.346 110-110-49.346-110-110-110zm-35 70c8.284 0 15 6.716 15 15s-6.716 15-15 15-15-6.716-15-15 6.716-15 15-15zm80.786 80.425c-12.201 12.623-28.462 19.575-45.786 19.575s-33.585-6.952-45.786-19.575c-5.757-5.957-5.595-15.453.361-21.211 5.957-5.757 15.453-5.597 21.211.361 6.497 6.723 15.096 10.425 24.214 10.425s17.717-3.702 24.214-10.425c5.758-5.956 15.25-6.12 21.211-.361 5.956 5.758 6.118 15.254.361 21.211zm-10.786-50.425c-8.284 0-15-6.716-15-15s6.716-15 15-15 15 6.716 15 15-6.716 15-15 15z" fill="#5a6344" fill-opacity="1" data-original-color="#000000ff" stroke="none" stroke-opacity="1"/><path d="m111 292c-60.654 0-110 49.346-110 110s49.346 110 110 110 110-49.346 110-110-49.346-110-110-110zm-35 70c8.284 0 15 6.716 15 15s-6.716 15-15 15-15-6.716-15-15 6.716-15 15-15zm80.425 85.786c-2.912 2.813-6.67 4.214-10.423 4.214-3.925 0-7.845-1.53-10.788-4.575-6.497-6.723-15.096-10.425-24.214-10.425s-17.717 3.702-24.214 10.425c-5.758 5.954-15.252 6.118-21.211.361-5.956-5.758-6.118-15.254-.361-21.211 12.201-12.623 28.462-19.575 45.786-19.575s33.585 6.952 45.786 19.575c5.757 5.957 5.595 15.453-.361 21.211zm-10.425-55.786c-8.284 0-15-6.716-15-15s6.716-15 15-15 15 6.716 15 15-6.716 15-15 15z" fill="#5a6344" fill-opacity="1" data-original-color="#000000ff" stroke="none" stroke-opacity="1"/></g></g></svg>